<svg width="69" height="48" fill="none" xmlns="http://www.w3.org/2000/svg"><path d="M28.266 33.09a2.434 2.434 0 0 1-2.25-1.505L24.578 28.1a2.434 2.434 0 0 0-2.25-1.506H12.264a2.434 2.434 0 0 0-2.268 1.55L8.671 31.54a2.434 2.434 0 0 1-2.268 1.55H2.722c-1.755 0-2.934-1.802-2.23-3.41L12.839 1.459A2.434 2.434 0 0 1 15.069 0h4.9c.971 0 1.849.576 2.234 1.467l12.222 28.222c.697 1.607-.482 3.402-2.233 3.402h-3.926Zm-8.638-18.294c-.79-2.091-3.743-2.102-4.548-.018l-.812 2.101a2.434 2.434 0 0 0 2.271 3.312h1.605a2.434 2.434 0 0 0 2.277-3.294l-.793-2.101Z" fill="#647B64"/><path d="M68.069 34.633c0 1.994-.357 3.817-1.072 5.468a11.842 11.842 0 0 1-2.974 4.207c-1.3 1.153-2.875 2.056-4.728 2.71-1.82.655-3.85.982-6.093.982-2.274 0-4.322-.327-6.141-.981-1.82-.655-3.364-1.558-4.63-2.711a12.134 12.134 0 0 1-2.925-4.207c-.683-1.651-1.024-3.474-1.024-5.468v-9.624a2.434 2.434 0 0 0-2.434-2.434H28.309a2.434 2.434 0 0 1-2.334-1.743l-1.092-3.684a2.434 2.434 0 0 1 2.334-3.127h17.117a2.434 2.434 0 0 1 2.434 2.435v17.523c0 .903.114 1.76.341 2.57.26.81.634 1.543 1.122 2.197.52.623 1.186 1.122 1.998 1.495.845.374 1.852.561 3.022.561 1.17 0 2.161-.187 2.973-.56.845-.374 1.528-.873 2.048-1.496a6.18 6.18 0 0 0 1.12-2.197c.228-.81.342-1.667.342-2.57V16.456a2.434 2.434 0 0 1 2.434-2.435h3.467a2.434 2.434 0 0 1 2.434 2.435v18.177Z" fill="#647B64"/></svg>